<mxfile host="Electron" modified="2023-08-19T02:15:53.070Z" agent="Mozilla/5.0 (Windows NT 10.0; Win64; x64) AppleWebKit/537.36 (KHTML, like Gecko) draw.io/21.6.1 Chrome/112.0.5615.204 Electron/24.6.1 Safari/537.36" etag="XMC0ODg76b8Fe0DOwUqs" version="21.6.1" type="device">
  <diagram name="第 1 页" id="E7FV8pIwXT6nveTNGaCU">
    <mxGraphModel dx="2058" dy="1188" grid="1" gridSize="10" guides="1" tooltips="1" connect="1" arrows="1" fold="1" page="1" pageScale="1" pageWidth="827" pageHeight="1169" math="0" shadow="0">
      <root>
        <mxCell id="0" />
        <mxCell id="1" parent="0" />
        <mxCell id="DIw15B_6P46cHO6aUXGj-1" value="" style="endArrow=none;html=1;rounded=0;strokeWidth=3;" parent="1" edge="1">
          <mxGeometry width="50" height="50" relative="1" as="geometry">
            <mxPoint x="160" y="140" as="sourcePoint" />
            <mxPoint x="920" y="140" as="targetPoint" />
          </mxGeometry>
        </mxCell>
        <mxCell id="DIw15B_6P46cHO6aUXGj-2" value="" style="endArrow=none;html=1;rounded=0;strokeWidth=1;" parent="1" edge="1">
          <mxGeometry width="50" height="50" relative="1" as="geometry">
            <mxPoint x="160" y="180" as="sourcePoint" />
            <mxPoint x="920" y="180" as="targetPoint" />
          </mxGeometry>
        </mxCell>
        <mxCell id="DIw15B_6P46cHO6aUXGj-3" value="&lt;font style=&quot;font-size: 17px;&quot;&gt;算法&lt;/font&gt;" style="text;html=1;align=center;verticalAlign=middle;resizable=0;points=[];autosize=1;strokeColor=none;fillColor=none;" parent="1" vertex="1">
          <mxGeometry x="210" y="145" width="60" height="30" as="geometry" />
        </mxCell>
        <mxCell id="DIw15B_6P46cHO6aUXGj-5" value="&lt;span style=&quot;font-size: 17px;&quot;&gt;权重尺寸/M&lt;/span&gt;" style="text;html=1;align=center;verticalAlign=middle;resizable=0;points=[];autosize=1;strokeColor=none;fillColor=none;" parent="1" vertex="1">
          <mxGeometry x="640" y="145" width="110" height="30" as="geometry" />
        </mxCell>
        <mxCell id="DIw15B_6P46cHO6aUXGj-6" value="" style="endArrow=none;html=1;rounded=0;strokeWidth=3;" parent="1" edge="1">
          <mxGeometry width="50" height="50" relative="1" as="geometry">
            <mxPoint x="160" y="400" as="sourcePoint" />
            <mxPoint x="920" y="400" as="targetPoint" />
          </mxGeometry>
        </mxCell>
        <mxCell id="DIw15B_6P46cHO6aUXGj-8" value="&lt;font style=&quot;font-size: 13px;&quot;&gt;&lt;b&gt;YOLOv8m&lt;/b&gt;&lt;/font&gt;" style="text;html=1;align=center;verticalAlign=middle;resizable=0;points=[];autosize=1;strokeColor=none;fillColor=none;strokeWidth=1;" parent="1" vertex="1">
          <mxGeometry x="195" y="236" width="90" height="30" as="geometry" />
        </mxCell>
        <mxCell id="VicLum9elVRLqYhQIz21-1" value="&lt;font style=&quot;font-size: 17px;&quot;&gt;参数量/10&lt;sup&gt;6&lt;/sup&gt;&lt;/font&gt;" style="text;html=1;align=center;verticalAlign=middle;resizable=0;points=[];autosize=1;strokeColor=none;fillColor=none;" parent="1" vertex="1">
          <mxGeometry x="440" y="140" width="110" height="40" as="geometry" />
        </mxCell>
        <mxCell id="VicLum9elVRLqYhQIz21-2" value="&lt;span style=&quot;font-size: 17px;&quot;&gt;数据集&lt;/span&gt;" style="text;html=1;align=center;verticalAlign=middle;resizable=0;points=[];autosize=1;strokeColor=none;fillColor=none;" parent="1" vertex="1">
          <mxGeometry x="350" y="145" width="70" height="30" as="geometry" />
        </mxCell>
        <mxCell id="VicLum9elVRLqYhQIz21-3" value="&lt;font style=&quot;font-size: 17px;&quot;&gt;FLOPs/G&lt;/font&gt;" style="text;html=1;align=center;verticalAlign=middle;resizable=0;points=[];autosize=1;strokeColor=none;fillColor=none;" parent="1" vertex="1">
          <mxGeometry x="550" y="145" width="90" height="30" as="geometry" />
        </mxCell>
        <mxCell id="VicLum9elVRLqYhQIz21-4" value="&lt;span style=&quot;font-size: 17px;&quot;&gt;推理延时(ms/img)&lt;/span&gt;" style="text;html=1;align=center;verticalAlign=middle;resizable=0;points=[];autosize=1;strokeColor=none;fillColor=none;" parent="1" vertex="1">
          <mxGeometry x="735" y="145" width="160" height="30" as="geometry" />
        </mxCell>
        <mxCell id="4cxu4-FbFrHy6zYz7uLl-1" value="HTaS6" style="text;html=1;align=center;verticalAlign=middle;resizable=0;points=[];autosize=1;strokeColor=none;fillColor=none;" parent="1" vertex="1">
          <mxGeometry x="355" y="198" width="60" height="30" as="geometry" />
        </mxCell>
        <mxCell id="4cxu4-FbFrHy6zYz7uLl-2" value="43.7" style="text;html=1;align=center;verticalAlign=middle;resizable=0;points=[];autosize=1;strokeColor=none;fillColor=none;" parent="1" vertex="1">
          <mxGeometry x="470" y="198" width="50" height="30" as="geometry" />
        </mxCell>
        <mxCell id="4cxu4-FbFrHy6zYz7uLl-5" value="&lt;font style=&quot;font-size: 13px;&quot;&gt;&lt;b&gt;YOLOv7&lt;sup&gt;[10]&lt;/sup&gt;&lt;/b&gt;&lt;/font&gt;" style="text;html=1;align=center;verticalAlign=middle;resizable=0;points=[];autosize=1;strokeColor=none;fillColor=none;strokeWidth=1;" parent="1" vertex="1">
          <mxGeometry x="195" y="274" width="90" height="30" as="geometry" />
        </mxCell>
        <mxCell id="4cxu4-FbFrHy6zYz7uLl-6" value="&lt;font style=&quot;font-size: 13px;&quot;&gt;&lt;b&gt;YOLOv8l&lt;/b&gt;&lt;/font&gt;" style="text;html=1;align=center;verticalAlign=middle;resizable=0;points=[];autosize=1;strokeColor=none;fillColor=none;strokeWidth=1;" parent="1" vertex="1">
          <mxGeometry x="200" y="198" width="80" height="30" as="geometry" />
        </mxCell>
        <mxCell id="4cxu4-FbFrHy6zYz7uLl-8" value="&lt;b style=&quot;border-color: var(--border-color); font-size: 13px;&quot;&gt;Faster-YOLOv8l（ours）&lt;/b&gt;" style="text;html=1;align=center;verticalAlign=middle;resizable=0;points=[];autosize=1;strokeColor=none;fillColor=none;strokeWidth=1;" parent="1" vertex="1">
          <mxGeometry x="150" y="350" width="180" height="30" as="geometry" />
        </mxCell>
        <mxCell id="4cxu4-FbFrHy6zYz7uLl-14" value="HTaS6" style="text;html=1;align=center;verticalAlign=middle;resizable=0;points=[];autosize=1;strokeColor=none;fillColor=none;" parent="1" vertex="1">
          <mxGeometry x="355" y="236" width="60" height="30" as="geometry" />
        </mxCell>
        <mxCell id="4cxu4-FbFrHy6zYz7uLl-15" value="HTaS6" style="text;html=1;align=center;verticalAlign=middle;resizable=0;points=[];autosize=1;strokeColor=none;fillColor=none;" parent="1" vertex="1">
          <mxGeometry x="355" y="274" width="60" height="30" as="geometry" />
        </mxCell>
        <mxCell id="4cxu4-FbFrHy6zYz7uLl-17" value="HTaS6" style="text;html=1;align=center;verticalAlign=middle;resizable=0;points=[];autosize=1;strokeColor=none;fillColor=none;" parent="1" vertex="1">
          <mxGeometry x="355" y="350" width="60" height="30" as="geometry" />
        </mxCell>
        <mxCell id="4cxu4-FbFrHy6zYz7uLl-21" value="22.9" style="text;html=1;align=center;verticalAlign=middle;resizable=0;points=[];autosize=1;strokeColor=none;fillColor=none;" parent="1" vertex="1">
          <mxGeometry x="470" y="350" width="50" height="30" as="geometry" />
        </mxCell>
        <mxCell id="4cxu4-FbFrHy6zYz7uLl-32" value="25.8" style="text;html=1;align=center;verticalAlign=middle;resizable=0;points=[];autosize=1;strokeColor=none;fillColor=none;" parent="1" vertex="1">
          <mxGeometry x="470" y="236" width="50" height="30" as="geometry" />
        </mxCell>
        <mxCell id="PtwD_RnPjcEU7UEEfidj-3" value="&lt;font style=&quot;font-size: 13px;&quot;&gt;&lt;b&gt;YOLOv5l&lt;/b&gt;&lt;/font&gt;" style="text;html=1;align=center;verticalAlign=middle;resizable=0;points=[];autosize=1;strokeColor=none;fillColor=none;strokeWidth=1;" parent="1" vertex="1">
          <mxGeometry x="200" y="310" width="80" height="30" as="geometry" />
        </mxCell>
        <mxCell id="PtwD_RnPjcEU7UEEfidj-5" value="HTaS6" style="text;html=1;align=center;verticalAlign=middle;resizable=0;points=[];autosize=1;strokeColor=none;fillColor=none;" parent="1" vertex="1">
          <mxGeometry x="355" y="310" width="60" height="30" as="geometry" />
        </mxCell>
        <mxCell id="PtwD_RnPjcEU7UEEfidj-7" value="165.7" style="text;html=1;align=center;verticalAlign=middle;resizable=0;points=[];autosize=1;strokeColor=none;fillColor=none;" parent="1" vertex="1">
          <mxGeometry x="570" y="198" width="50" height="30" as="geometry" />
        </mxCell>
        <mxCell id="PtwD_RnPjcEU7UEEfidj-8" value="79.3" style="text;html=1;align=center;verticalAlign=middle;resizable=0;points=[];autosize=1;strokeColor=none;fillColor=none;" parent="1" vertex="1">
          <mxGeometry x="570" y="236" width="50" height="30" as="geometry" />
        </mxCell>
        <mxCell id="PtwD_RnPjcEU7UEEfidj-9" value="78.4" style="text;html=1;align=center;verticalAlign=middle;resizable=0;points=[];autosize=1;strokeColor=none;fillColor=none;" parent="1" vertex="1">
          <mxGeometry x="570" y="350" width="50" height="30" as="geometry" />
        </mxCell>
        <mxCell id="xTI8PQOOFDmYZweKkto6-1" value="37.2" style="text;html=1;align=center;verticalAlign=middle;resizable=0;points=[];autosize=1;strokeColor=none;fillColor=none;" parent="1" vertex="1">
          <mxGeometry x="470" y="274" width="50" height="30" as="geometry" />
        </mxCell>
        <mxCell id="xTI8PQOOFDmYZweKkto6-2" value="45.5" style="text;html=1;align=center;verticalAlign=middle;resizable=0;points=[];autosize=1;strokeColor=none;fillColor=none;" parent="1" vertex="1">
          <mxGeometry x="470" y="310" width="50" height="30" as="geometry" />
        </mxCell>
        <mxCell id="xTI8PQOOFDmYZweKkto6-3" value="105.1" style="text;html=1;align=center;verticalAlign=middle;resizable=0;points=[];autosize=1;strokeColor=none;fillColor=none;" parent="1" vertex="1">
          <mxGeometry x="570" y="274" width="50" height="30" as="geometry" />
        </mxCell>
        <mxCell id="xTI8PQOOFDmYZweKkto6-4" value="108.9" style="text;html=1;align=center;verticalAlign=middle;resizable=0;points=[];autosize=1;strokeColor=none;fillColor=none;" parent="1" vertex="1">
          <mxGeometry x="570" y="310" width="50" height="30" as="geometry" />
        </mxCell>
        <mxCell id="xTI8PQOOFDmYZweKkto6-5" value="83.5" style="text;html=1;align=center;verticalAlign=middle;resizable=0;points=[];autosize=1;strokeColor=none;fillColor=none;" parent="1" vertex="1">
          <mxGeometry x="670" y="198" width="50" height="30" as="geometry" />
        </mxCell>
        <mxCell id="xTI8PQOOFDmYZweKkto6-6" value="49.5" style="text;html=1;align=center;verticalAlign=middle;resizable=0;points=[];autosize=1;strokeColor=none;fillColor=none;" parent="1" vertex="1">
          <mxGeometry x="670" y="236" width="50" height="30" as="geometry" />
        </mxCell>
        <mxCell id="xTI8PQOOFDmYZweKkto6-7" value="49.2" style="text;html=1;align=center;verticalAlign=middle;resizable=0;points=[];autosize=1;strokeColor=none;fillColor=none;" parent="1" vertex="1">
          <mxGeometry x="670" y="350" width="50" height="30" as="geometry" />
        </mxCell>
        <mxCell id="xTI8PQOOFDmYZweKkto6-8" value="74.8" style="text;html=1;align=center;verticalAlign=middle;resizable=0;points=[];autosize=1;strokeColor=none;fillColor=none;" parent="1" vertex="1">
          <mxGeometry x="670" y="274" width="50" height="30" as="geometry" />
        </mxCell>
        <mxCell id="xTI8PQOOFDmYZweKkto6-9" value="108.9" style="text;html=1;align=center;verticalAlign=middle;resizable=0;points=[];autosize=1;strokeColor=none;fillColor=none;" parent="1" vertex="1">
          <mxGeometry x="670" y="310" width="50" height="30" as="geometry" />
        </mxCell>
        <mxCell id="xTI8PQOOFDmYZweKkto6-10" value="24" style="text;html=1;align=center;verticalAlign=middle;resizable=0;points=[];autosize=1;strokeColor=none;fillColor=none;" parent="1" vertex="1">
          <mxGeometry x="795" y="198" width="40" height="30" as="geometry" />
        </mxCell>
        <mxCell id="xTI8PQOOFDmYZweKkto6-11" value="19" style="text;html=1;align=center;verticalAlign=middle;resizable=0;points=[];autosize=1;strokeColor=none;fillColor=none;" parent="1" vertex="1">
          <mxGeometry x="795" y="236" width="40" height="30" as="geometry" />
        </mxCell>
        <mxCell id="xTI8PQOOFDmYZweKkto6-12" value="19" style="text;html=1;align=center;verticalAlign=middle;resizable=0;points=[];autosize=1;strokeColor=none;fillColor=none;" parent="1" vertex="1">
          <mxGeometry x="795" y="350" width="40" height="30" as="geometry" />
        </mxCell>
        <mxCell id="xTI8PQOOFDmYZweKkto6-13" value="26" style="text;html=1;align=center;verticalAlign=middle;resizable=0;points=[];autosize=1;strokeColor=none;fillColor=none;" parent="1" vertex="1">
          <mxGeometry x="795" y="274" width="40" height="30" as="geometry" />
        </mxCell>
        <mxCell id="xTI8PQOOFDmYZweKkto6-14" value="28" style="text;html=1;align=center;verticalAlign=middle;resizable=0;points=[];autosize=1;strokeColor=none;fillColor=none;" parent="1" vertex="1">
          <mxGeometry x="795" y="310" width="40" height="30" as="geometry" />
        </mxCell>
      </root>
    </mxGraphModel>
  </diagram>
</mxfile>
